{
	"asset":{
		"generator":"Khronos glTF Blender I/O v4.3.47",
		"version":"2.0"
	},
	"scene":0,
	"scenes":[
		{
			"name":"Scene",
			"nodes":[
				0
			]
		}
	],
	"nodes":[
		{
			"mesh":0,
			"name":"Cylinder"
		}
	],
	"meshes":[
		{
			"name":"Cylinder",
			"primitives":[
				{
					"attributes":{
						"POSITION":0,
						"NORMAL":1,
						"TEXCOORD_0":2,
						"TANGENT":3
					},
					"indices":4
				}
			]
		}
	],
	"accessors":[
		{
			"bufferView":0,
			"componentType":5126,
			"count":1694,
			"max":[
				1.000405192375183,
				1.0144230127334595,
				0.12282483279705048
			],
			"min":[
				-1.000405192375183,
				-1.0144230127334595,
				-0.12282483279705048
			],
			"type":"VEC3"
		},
		{
			"bufferView":1,
			"componentType":5126,
			"count":1694,
			"type":"VEC3"
		},
		{
			"bufferView":2,
			"componentType":5126,
			"count":1694,
			"type":"VEC2"
		},
		{
			"bufferView":3,
			"componentType":5126,
			"count":1694,
			"type":"VEC4"
		},
		{
			"bufferView":4,
			"componentType":5123,
			"count":5220,
			"type":"SCALAR"
		}
	],
	"bufferViews":[
		{
			"buffer":0,
			"byteLength":20328,
			"byteOffset":0,
			"target":34962
		},
		{
			"buffer":0,
			"byteLength":20328,
			"byteOffset":20328,
			"target":34962
		},
		{
			"buffer":0,
			"byteLength":13552,
			"byteOffset":40656,
			"target":34962
		},
		{
			"buffer":0,
			"byteLength":27104,
			"byteOffset":54208,
			"target":34962
		},
		{
			"buffer":0,
			"byteLength":10440,
			"byteOffset":81312,
			"target":34963
		}
	],
	"buffers":[
		{
			"byteLength":91752,
			"uri":"Button-343032a98888ad4d4173f554f1e8d185.bin"
		}
	]
}
