{
	"asset":{
		"generator":"Khronos glTF Blender I/O v4.3.47",
		"version":"2.0"
	},
	"scene":0,
	"scenes":[
		{
			"name":"Scene",
			"nodes":[
				0
			]
		}
	],
	"nodes":[
		{
			"mesh":0,
			"name":"Cheese"
		}
	],
	"materials":[
		{
			"doubleSided":true,
			"name":"Cheese",
			"pbrMetallicRoughness":{
				"baseColorFactor":[
					0.8005450963973999,
					0.6518644690513611,
					0.1501808613538742,
					1
				],
				"metallicFactor":0,
				"roughnessFactor":0.5078740119934082
			}
		}
	],
	"meshes":[
		{
			"name":"Plane",
			"primitives":[
				{
					"attributes":{
						"POSITION":0,
						"NORMAL":1,
						"TEXCOORD_0":2,
						"TANGENT":3
					},
					"indices":4,
					"material":0
				}
			]
		}
	],
	"accessors":[
		{
			"bufferView":0,
			"componentType":5126,
			"count":4738,
			"max":[
				0.9266390800476074,
				0.5483912229537964,
				0.9991904497146606
			],
			"min":[
				-0.926628053188324,
				-0.5616663694381714,
				-1.197858214378357
			],
			"type":"VEC3"
		},
		{
			"bufferView":1,
			"componentType":5126,
			"count":4738,
			"type":"VEC3"
		},
		{
			"bufferView":2,
			"componentType":5126,
			"count":4738,
			"type":"VEC2"
		},
		{
			"bufferView":3,
			"componentType":5126,
			"count":4738,
			"type":"VEC4"
		},
		{
			"bufferView":4,
			"componentType":5123,
			"count":27720,
			"type":"SCALAR"
		}
	],
	"bufferViews":[
		{
			"buffer":0,
			"byteLength":56856,
			"byteOffset":0,
			"target":34962
		},
		{
			"buffer":0,
			"byteLength":56856,
			"byteOffset":56856,
			"target":34962
		},
		{
			"buffer":0,
			"byteLength":37904,
			"byteOffset":113712,
			"target":34962
		},
		{
			"buffer":0,
			"byteLength":75808,
			"byteOffset":151616,
			"target":34962
		},
		{
			"buffer":0,
			"byteLength":55440,
			"byteOffset":227424,
			"target":34963
		}
	],
	"buffers":[
		{
			"byteLength":282864,
			"uri":"Cheese_2-352a1b2786b5d2e91ca14abbb904df87.bin"
		}
	]
}
