{
	"asset":{
		"generator":"Khronos glTF Blender I/O v4.3.47",
		"version":"2.0"
	},
	"scene":0,
	"scenes":[
		{
			"name":"Scene",
			"nodes":[
				0,
				1
			]
		}
	],
	"nodes":[
		{
			"mesh":0,
			"name":"Cube",
			"scale":[
				5,
				0.5,
				5
			]
		},
		{
			"mesh":1,
			"name":"Cube.001",
			"scale":[
				4.878567218780518,
				1.0800000429153442,
				4.878567218780518
			],
			"translation":[
				0,
				-0.590032160282135,
				-11.961226463317871
			]
		}
	],
	"materials":[
		{
			"doubleSided":true,
			"name":"Material1",
			"pbrMetallicRoughness":{
				"baseColorFactor":[
					0.017387520521879196,
					0.017387520521879196,
					0.017387520521879196,
					1
				],
				"metallicFactor":0
			}
		},
		{
			"doubleSided":true,
			"name":"Material2",
			"pbrMetallicRoughness":{
				"baseColorFactor":[
					0.8000000715255737,
					0.13154201209545135,
					0.12364369630813599,
					1
				],
				"metallicFactor":0
			}
		},
		{
			"doubleSided":true,
			"name":"Material3",
			"pbrMetallicRoughness":{
				"baseColorFactor":[
					0.5704694390296936,
					0.5704694390296936,
					0.5704694390296936,
					1
				],
				"metallicFactor":0
			}
		},
		{
			"doubleSided":true,
			"name":"Material4",
			"pbrMetallicRoughness":{
				"baseColorFactor":[
					0.029099076986312866,
					0.029099076986312866,
					0.029099076986312866,
					1
				],
				"metallicFactor":0
			}
		},
		{
			"doubleSided":true,
			"name":"Material5",
			"pbrMetallicRoughness":{
				"baseColorFactor":[
					0.04900752380490303,
					0.3155388832092285,
					1,
					1
				],
				"metallicFactor":0
			}
		}
	],
	"meshes":[
		{
			"name":"Cube.004",
			"primitives":[
				{
					"attributes":{
						"POSITION":0,
						"NORMAL":1,
						"TEXCOORD_0":2
					},
					"indices":3,
					"material":0
				},
				{
					"attributes":{
						"POSITION":4,
						"NORMAL":5,
						"TEXCOORD_0":6
					},
					"indices":7,
					"material":1
				},
				{
					"attributes":{
						"POSITION":8,
						"NORMAL":9,
						"TEXCOORD_0":10
					},
					"indices":11,
					"material":2
				},
				{
					"attributes":{
						"POSITION":12,
						"NORMAL":13,
						"TEXCOORD_0":14
					},
					"indices":15,
					"material":3
				}
			]
		},
		{
			"name":"Cube.007",
			"primitives":[
				{
					"attributes":{
						"POSITION":16,
						"NORMAL":17,
						"TEXCOORD_0":18
					},
					"indices":19,
					"material":0
				},
				{
					"attributes":{
						"POSITION":20,
						"NORMAL":21,
						"TEXCOORD_0":22
					},
					"indices":23,
					"material":4
				},
				{
					"attributes":{
						"POSITION":24,
						"NORMAL":25,
						"TEXCOORD_0":26
					},
					"indices":27,
					"material":2
				},
				{
					"attributes":{
						"POSITION":28,
						"NORMAL":29,
						"TEXCOORD_0":30
					},
					"indices":31,
					"material":3
				}
			]
		}
	],
	"accessors":[
		{
			"bufferView":0,
			"componentType":5126,
			"count":120,
			"max":[
				0.774864673614502,
				1,
				0.774864673614502
			],
			"min":[
				-0.774864673614502,
				-3.3107776641845703,
				-0.774864673614502
			],
			"type":"VEC3"
		},
		{
			"bufferView":1,
			"componentType":5126,
			"count":120,
			"type":"VEC3"
		},
		{
			"bufferView":2,
			"componentType":5126,
			"count":120,
			"type":"VEC2"
		},
		{
			"bufferView":3,
			"componentType":5123,
			"count":348,
			"type":"SCALAR"
		},
		{
			"bufferView":4,
			"componentType":5126,
			"count":1317,
			"max":[
				1,
				1,
				1
			],
			"min":[
				-1,
				-3.3107776641845703,
				-1
			],
			"type":"VEC3"
		},
		{
			"bufferView":5,
			"componentType":5126,
			"count":1317,
			"type":"VEC3"
		},
		{
			"bufferView":6,
			"componentType":5126,
			"count":1317,
			"type":"VEC2"
		},
		{
			"bufferView":7,
			"componentType":5123,
			"count":3600,
			"type":"SCALAR"
		},
		{
			"bufferView":8,
			"componentType":5126,
			"count":2147,
			"max":[
				1.0537317991256714,
				0.6505352258682251,
				1.0537317991256714
			],
			"min":[
				-1.0537317991256714,
				-1.3646466732025146,
				-1.0537317991256714
			],
			"type":"VEC3"
		},
		{
			"bufferView":9,
			"componentType":5126,
			"count":2147,
			"type":"VEC3"
		},
		{
			"bufferView":10,
			"componentType":5126,
			"count":2147,
			"type":"VEC2"
		},
		{
			"bufferView":11,
			"componentType":5123,
			"count":3960,
			"type":"SCALAR"
		},
		{
			"bufferView":12,
			"componentType":5126,
			"count":120,
			"max":[
				0.8626278638839722,
				1,
				0.8626278638839722
			],
			"min":[
				-0.8626278638839722,
				1,
				-0.8626278638839722
			],
			"type":"VEC3"
		},
		{
			"bufferView":13,
			"componentType":5126,
			"count":120,
			"type":"VEC3"
		},
		{
			"bufferView":14,
			"componentType":5126,
			"count":120,
			"type":"VEC2"
		},
		{
			"bufferView":15,
			"componentType":5123,
			"count":360,
			"type":"SCALAR"
		},
		{
			"bufferView":16,
			"componentType":5126,
			"count":88,
			"max":[
				0.790765643119812,
				1,
				0.790765643119812
			],
			"min":[
				-0.790765643119812,
				-1,
				-0.790765643119812
			],
			"type":"VEC3"
		},
		{
			"bufferView":17,
			"componentType":5126,
			"count":88,
			"type":"VEC3"
		},
		{
			"bufferView":18,
			"componentType":5126,
			"count":88,
			"type":"VEC2"
		},
		{
			"bufferView":19,
			"componentType":5123,
			"count":252,
			"type":"SCALAR"
		},
		{
			"bufferView":20,
			"componentType":5126,
			"count":1616,
			"max":[
				1,
				1,
				1
			],
			"min":[
				-1,
				-1,
				-1
			],
			"type":"VEC3"
		},
		{
			"bufferView":21,
			"componentType":5126,
			"count":1616,
			"type":"VEC3"
		},
		{
			"bufferView":22,
			"componentType":5126,
			"count":1616,
			"type":"VEC2"
		},
		{
			"bufferView":23,
			"componentType":5123,
			"count":5832,
			"type":"SCALAR"
		},
		{
			"bufferView":24,
			"componentType":5126,
			"count":606,
			"max":[
				1.0761356353759766,
				0.4461018741130829,
				1.0761356353759766
			],
			"min":[
				-1.0761357545852661,
				-0.4461018741130829,
				-1.0761357545852661
			],
			"type":"VEC3"
		},
		{
			"bufferView":25,
			"componentType":5126,
			"count":606,
			"type":"VEC3"
		},
		{
			"bufferView":26,
			"componentType":5126,
			"count":606,
			"type":"VEC2"
		},
		{
			"bufferView":27,
			"componentType":5123,
			"count":1728,
			"type":"SCALAR"
		},
		{
			"bufferView":28,
			"componentType":5126,
			"count":88,
			"max":[
				0.790765643119812,
				1,
				0.790765643119812
			],
			"min":[
				-0.790765643119812,
				1,
				-0.790765643119812
			],
			"type":"VEC3"
		},
		{
			"bufferView":29,
			"componentType":5126,
			"count":88,
			"type":"VEC3"
		},
		{
			"bufferView":30,
			"componentType":5126,
			"count":88,
			"type":"VEC2"
		},
		{
			"bufferView":31,
			"componentType":5123,
			"count":264,
			"type":"SCALAR"
		}
	],
	"bufferViews":[
		{
			"buffer":0,
			"byteLength":1440,
			"byteOffset":0,
			"target":34962
		},
		{
			"buffer":0,
			"byteLength":1440,
			"byteOffset":1440,
			"target":34962
		},
		{
			"buffer":0,
			"byteLength":960,
			"byteOffset":2880,
			"target":34962
		},
		{
			"buffer":0,
			"byteLength":696,
			"byteOffset":3840,
			"target":34963
		},
		{
			"buffer":0,
			"byteLength":15804,
			"byteOffset":4536,
			"target":34962
		},
		{
			"buffer":0,
			"byteLength":15804,
			"byteOffset":20340,
			"target":34962
		},
		{
			"buffer":0,
			"byteLength":10536,
			"byteOffset":36144,
			"target":34962
		},
		{
			"buffer":0,
			"byteLength":7200,
			"byteOffset":46680,
			"target":34963
		},
		{
			"buffer":0,
			"byteLength":25764,
			"byteOffset":53880,
			"target":34962
		},
		{
			"buffer":0,
			"byteLength":25764,
			"byteOffset":79644,
			"target":34962
		},
		{
			"buffer":0,
			"byteLength":17176,
			"byteOffset":105408,
			"target":34962
		},
		{
			"buffer":0,
			"byteLength":7920,
			"byteOffset":122584,
			"target":34963
		},
		{
			"buffer":0,
			"byteLength":1440,
			"byteOffset":130504,
			"target":34962
		},
		{
			"buffer":0,
			"byteLength":1440,
			"byteOffset":131944,
			"target":34962
		},
		{
			"buffer":0,
			"byteLength":960,
			"byteOffset":133384,
			"target":34962
		},
		{
			"buffer":0,
			"byteLength":720,
			"byteOffset":134344,
			"target":34963
		},
		{
			"buffer":0,
			"byteLength":1056,
			"byteOffset":135064,
			"target":34962
		},
		{
			"buffer":0,
			"byteLength":1056,
			"byteOffset":136120,
			"target":34962
		},
		{
			"buffer":0,
			"byteLength":704,
			"byteOffset":137176,
			"target":34962
		},
		{
			"buffer":0,
			"byteLength":504,
			"byteOffset":137880,
			"target":34963
		},
		{
			"buffer":0,
			"byteLength":19392,
			"byteOffset":138384,
			"target":34962
		},
		{
			"buffer":0,
			"byteLength":19392,
			"byteOffset":157776,
			"target":34962
		},
		{
			"buffer":0,
			"byteLength":12928,
			"byteOffset":177168,
			"target":34962
		},
		{
			"buffer":0,
			"byteLength":11664,
			"byteOffset":190096,
			"target":34963
		},
		{
			"buffer":0,
			"byteLength":7272,
			"byteOffset":201760,
			"target":34962
		},
		{
			"buffer":0,
			"byteLength":7272,
			"byteOffset":209032,
			"target":34962
		},
		{
			"buffer":0,
			"byteLength":4848,
			"byteOffset":216304,
			"target":34962
		},
		{
			"buffer":0,
			"byteLength":3456,
			"byteOffset":221152,
			"target":34963
		},
		{
			"buffer":0,
			"byteLength":1056,
			"byteOffset":224608,
			"target":34962
		},
		{
			"buffer":0,
			"byteLength":1056,
			"byteOffset":225664,
			"target":34962
		},
		{
			"buffer":0,
			"byteLength":704,
			"byteOffset":226720,
			"target":34962
		},
		{
			"buffer":0,
			"byteLength":528,
			"byteOffset":227424,
			"target":34963
		}
	],
	"buffers":[
		{
			"byteLength":227952,
			"uri":"Platforms-d632fc441a6d6cf0c3b436159e91774a.bin"
		}
	]
}
